<svg width="123" height="35" viewBox="0 0 123 35" fill="none" xmlns="http://www.w3.org/2000/svg">
<g filter="url(#filter0_d_45_48)">
<path d="M10.8184 6.15723H28.5664V9.68652H14.8428V14.8789H26.4971V18.1924H14.8428V26H10.8184V6.15723ZM33.9619 8.97559C33.5895 8.97559 33.251 8.9248 32.9463 8.82324C32.6501 8.71322 32.3962 8.56934 32.1846 8.3916C31.973 8.2054 31.8079 7.99382 31.6895 7.75684C31.5794 7.51139 31.5244 7.25326 31.5244 6.98242C31.5244 6.70312 31.5794 6.44499 31.6895 6.20801C31.8079 5.96257 31.973 5.75098 32.1846 5.57324C32.3962 5.39551 32.6501 5.25586 32.9463 5.1543C33.251 5.04427 33.5895 4.98926 33.9619 4.98926C34.3428 4.98926 34.6813 5.04427 34.9775 5.1543C35.2822 5.25586 35.5404 5.39551 35.752 5.57324C35.9635 5.75098 36.1243 5.96257 36.2344 6.20801C36.3529 6.44499 36.4121 6.70312 36.4121 6.98242C36.4121 7.25326 36.3529 7.51139 36.2344 7.75684C36.1243 7.99382 35.9635 8.2054 35.752 8.3916C35.5404 8.56934 35.2822 8.71322 34.9775 8.82324C34.6813 8.9248 34.3428 8.97559 33.9619 8.97559ZM32.083 11.0195H35.8408V26H32.083V11.0195ZM40.665 11.0195H44.4229V12.2891C45.4215 11.722 46.3737 11.3242 47.2793 11.0957C48.1934 10.8672 49.0863 10.7529 49.958 10.7529C51.1006 10.7529 52.1585 10.9222 53.1318 11.2607C54.1051 11.5908 54.9473 12.0859 55.6582 12.7461C56.3691 13.4062 56.9235 14.2314 57.3213 15.2217C57.7275 16.2035 57.9307 17.3418 57.9307 18.6367V26H54.1855V19.2461C54.1855 18.4251 54.0671 17.693 53.8301 17.0498C53.6016 16.3981 53.2673 15.8522 52.8271 15.4121C52.3955 14.9635 51.8665 14.625 51.2402 14.3965C50.6224 14.1595 49.9284 14.041 49.1582 14.041C48.752 14.041 48.333 14.0833 47.9014 14.168C47.4782 14.2526 47.0592 14.3753 46.6445 14.5361C46.2383 14.6885 45.8447 14.8831 45.4639 15.1201C45.083 15.3486 44.736 15.611 44.4229 15.9072V26H40.665V11.0195ZM61.3965 18.5732C61.3965 17.3799 61.6208 16.305 62.0693 15.3486C62.5179 14.3838 63.1357 13.5628 63.9229 12.8857C64.7184 12.2002 65.6579 11.6755 66.7412 11.3115C67.833 10.9391 69.0137 10.7529 70.2832 10.7529C70.8249 10.7529 71.3581 10.7868 71.8828 10.8545C72.416 10.9222 72.9238 11.0153 73.4062 11.1338C73.8971 11.2523 74.3542 11.3962 74.7773 11.5654C75.209 11.7262 75.5898 11.904 75.9199 12.0986V4.93848H79.6777V26H75.9199V24.5908C75.5898 24.8193 75.2005 25.0352 74.752 25.2383C74.3034 25.4414 73.821 25.6191 73.3047 25.7715C72.7884 25.9238 72.251 26.0423 71.6924 26.127C71.1423 26.2201 70.5964 26.2666 70.0547 26.2666C68.7852 26.2666 67.6172 26.0804 66.5508 25.708C65.4928 25.3356 64.583 24.8109 63.8213 24.1338C63.0596 23.4567 62.4629 22.6484 62.0312 21.709C61.6081 20.7611 61.3965 19.7158 61.3965 18.5732ZM65.3447 18.5732C65.3447 19.1742 65.4632 19.7412 65.7002 20.2744C65.9456 20.8076 66.2926 21.2773 66.7412 21.6836C67.1982 22.0814 67.7441 22.3988 68.3789 22.6357C69.0221 22.8643 69.7415 22.9785 70.5371 22.9785C71.0449 22.9785 71.5527 22.932 72.0605 22.8389C72.5684 22.7373 73.055 22.5977 73.5205 22.4199C73.9945 22.2422 74.4346 22.0264 74.8408 21.7725C75.2555 21.5186 75.6152 21.235 75.9199 20.9219V15.7295C75.5391 15.4248 75.137 15.1667 74.7139 14.9551C74.2907 14.7435 73.859 14.57 73.4189 14.4346C72.9788 14.2992 72.5345 14.2018 72.0859 14.1426C71.6374 14.0749 71.2015 14.041 70.7783 14.041C69.915 14.041 69.1449 14.1595 68.4678 14.3965C67.7992 14.625 67.2321 14.9424 66.7666 15.3486C66.3096 15.7549 65.9583 16.2331 65.7129 16.7832C65.4674 17.3333 65.3447 17.93 65.3447 18.5732ZM83.5752 18.459C83.5752 17.4434 83.7826 16.4743 84.1973 15.5518C84.612 14.6208 85.2087 13.7998 85.9873 13.0889C86.766 12.3779 87.7181 11.8109 88.8438 11.3877C89.9779 10.9645 91.2643 10.7529 92.7031 10.7529C94.1335 10.7529 95.4199 10.9688 96.5625 11.4004C97.7135 11.8236 98.6868 12.4076 99.4824 13.1523C100.286 13.8971 100.9 14.7731 101.323 15.7803C101.755 16.7874 101.971 17.8665 101.971 19.0176C101.971 19.1615 101.966 19.318 101.958 19.4873C101.958 19.6481 101.95 19.7962 101.933 19.9316H87.7646C87.9255 20.3802 88.1836 20.7907 88.5391 21.1631C88.903 21.5355 89.3558 21.8571 89.8975 22.1279C90.4391 22.3988 91.0654 22.6104 91.7764 22.7627C92.4873 22.9066 93.2744 22.9785 94.1377 22.9785C95.001 22.9785 95.86 22.8896 96.7148 22.7119C97.5697 22.5257 98.3864 22.293 99.165 22.0137L100.435 24.8828C99.9437 25.1113 99.4443 25.3145 98.9365 25.4922C98.4372 25.6615 97.9124 25.8053 97.3623 25.9238C96.8206 26.0339 96.2493 26.1185 95.6484 26.1777C95.056 26.237 94.4297 26.2666 93.7695 26.2666C92.0853 26.2666 90.6084 26.0635 89.3389 25.6572C88.0693 25.251 87.0072 24.6966 86.1523 23.9941C85.2975 23.2917 84.6543 22.4665 84.2227 21.5186C83.791 20.5706 83.5752 19.5508 83.5752 18.459ZM97.9844 16.999C97.849 16.5843 97.6374 16.1992 97.3496 15.8438C97.0703 15.4798 96.7191 15.1667 96.2959 14.9043C95.8727 14.6335 95.3818 14.4219 94.8232 14.2695C94.2646 14.1172 93.651 14.041 92.9824 14.041C92.2715 14.041 91.624 14.1214 91.04 14.2822C90.4561 14.443 89.944 14.6589 89.5039 14.9297C89.0638 15.2005 88.6956 15.5137 88.3994 15.8691C88.1117 16.2246 87.9001 16.6012 87.7646 16.999H97.9844ZM106.021 11.0195H109.778V13.1777C110.608 12.5599 111.484 12.0267 112.406 11.5781C113.329 11.1296 114.247 10.7868 115.161 10.5498L116.266 13.9902C114.818 14.1341 113.545 14.46 112.444 14.9678C111.353 15.4671 110.464 16.1738 109.778 17.0879V26H106.021V11.0195Z" fill="white"/>
</g>
<g filter="url(#filter1_d_45_48)">
<path d="M4.4209 26.3496L4.4209 23.9355C4.4209 23.584 4.45898 23.2793 4.53516 23.0215C4.61133 22.7637 4.72168 22.5498 4.86621 22.3799C5.00879 22.21 5.18359 22.084 5.39063 22.002C5.59766 21.918 5.83105 21.876 6.09082 21.876C6.33496 21.876 6.56055 21.917 6.76758 21.999C6.97461 22.0811 7.1543 22.207 7.30664 22.377C7.45703 22.5449 7.5752 22.7578 7.66113 23.0156C7.74512 23.2734 7.78711 23.5781 7.78711 23.9297L7.78418 25.4209H9V26.3496H4.4209ZM6.98145 23.9121C6.98145 23.7363 6.96094 23.583 6.91992 23.4521C6.87695 23.3193 6.81738 23.209 6.74121 23.1211C6.66309 23.0312 6.56934 22.9648 6.45996 22.9219C6.34863 22.877 6.22559 22.8545 6.09082 22.8545C5.81934 22.8545 5.6084 22.9434 5.45801 23.1211C5.30566 23.2969 5.22949 23.5605 5.22949 23.9121L5.22949 25.4209H6.98145L6.98145 23.9121ZM4.4209 19.2979V18.3135L9 16.0986L9 17.0742L8.22949 17.4404V20.1152L9 20.4697L9 21.4482L4.4209 19.2979ZM7.46484 17.8066L5.38477 18.7969L7.46484 19.7607V17.8066ZM5.23535 14.0068V15.6973H4.4209L4.4209 11.3877H5.23535V13.0781L9 13.0781V14.0068L5.23535 14.0068ZM4.4209 10.3975V9.46875H5.61621L5.61621 6.62109H4.4209V5.68945H9V6.62109H6.41016L6.41016 9.46875H9V10.3975H4.4209Z" fill="white"/>
</g>
<g filter="url(#filter2_d_45_48)">
<path d="M111.466 25.5776C111.466 25.5125 111.479 25.4515 111.505 25.3945C111.533 25.3359 111.572 25.2855 111.623 25.2432C111.673 25.1992 111.734 25.165 111.806 25.1406C111.877 25.1162 111.958 25.104 112.047 25.104C112.137 25.104 112.217 25.1162 112.289 25.1406C112.361 25.165 112.421 25.1992 112.47 25.2432C112.52 25.2855 112.558 25.3359 112.584 25.3945C112.612 25.4515 112.626 25.5125 112.626 25.5776C112.626 25.6427 112.612 25.7046 112.584 25.7632C112.558 25.8201 112.52 25.8698 112.47 25.9121C112.421 25.9544 112.361 25.9878 112.289 26.0122C112.217 26.0382 112.137 26.0513 112.047 26.0513C111.958 26.0513 111.877 26.0382 111.806 26.0122C111.734 25.9878 111.673 25.9544 111.623 25.9121C111.572 25.8698 111.533 25.8201 111.505 25.7632C111.479 25.7046 111.466 25.6427 111.466 25.5776ZM113.41 25.0918C113.41 24.9535 113.44 24.8273 113.5 24.7134C113.56 24.5994 113.651 24.5018 113.771 24.4204C113.891 24.3374 114.041 24.2739 114.22 24.23C114.401 24.1844 114.611 24.1616 114.85 24.1616C115.028 24.1616 115.214 24.1746 115.409 24.2007C115.606 24.2267 115.809 24.2666 116.017 24.3203C116.009 24.2292 115.981 24.1453 115.934 24.0688C115.887 23.9907 115.821 23.924 115.736 23.8687C115.653 23.8117 115.552 23.7677 115.434 23.7368C115.316 23.7059 115.183 23.6904 115.033 23.6904C114.952 23.6904 114.862 23.6953 114.765 23.7051C114.667 23.7148 114.566 23.7295 114.462 23.749C114.358 23.7686 114.254 23.793 114.152 23.8223C114.051 23.8516 113.957 23.8866 113.869 23.9272L113.649 23.334C113.758 23.2949 113.874 23.2591 113.998 23.2266C114.123 23.194 114.251 23.1663 114.381 23.1436C114.512 23.1191 114.642 23.1004 114.772 23.0874C114.902 23.0744 115.028 23.0679 115.15 23.0679C115.689 23.0679 116.09 23.2054 116.352 23.4805C116.614 23.7555 116.745 24.1771 116.745 24.7451V26H116.022V25.729C115.947 25.7729 115.865 25.8145 115.775 25.8535C115.688 25.8926 115.591 25.9268 115.487 25.9561C115.383 25.9854 115.271 26.0081 115.15 26.0244C115.032 26.0423 114.905 26.0513 114.772 26.0513C114.547 26.0513 114.35 26.0269 114.179 25.978C114.009 25.9292 113.868 25.8617 113.754 25.7754C113.64 25.6891 113.554 25.5882 113.495 25.4727C113.438 25.3555 113.41 25.2285 113.41 25.0918ZM114.171 25.0674C114.171 25.1146 114.184 25.1602 114.208 25.2041C114.232 25.2464 114.271 25.2847 114.325 25.3188C114.379 25.3514 114.447 25.3783 114.53 25.3994C114.615 25.4189 114.717 25.4287 114.835 25.4287C114.962 25.4287 115.085 25.4173 115.204 25.3945C115.323 25.3717 115.434 25.3416 115.536 25.3042C115.639 25.2668 115.731 25.2236 115.814 25.1748C115.897 25.126 115.967 25.0755 116.022 25.0234V24.8965C115.911 24.8656 115.801 24.8395 115.692 24.8184C115.585 24.7972 115.482 24.7809 115.382 24.7695C115.285 24.7565 115.192 24.7476 115.104 24.7427C115.018 24.7378 114.942 24.7354 114.877 24.7354C114.742 24.7354 114.63 24.7443 114.54 24.7622C114.451 24.7801 114.378 24.8045 114.323 24.8354C114.267 24.8647 114.228 24.8997 114.206 24.9404C114.183 24.9811 114.171 25.0234 114.171 25.0674ZM118.083 22.7261C118.011 22.7261 117.946 22.7163 117.887 22.6968C117.83 22.6756 117.781 22.6479 117.741 22.6138C117.7 22.578 117.668 22.5373 117.646 22.4917C117.624 22.4445 117.614 22.3949 117.614 22.3428C117.614 22.2891 117.624 22.2394 117.646 22.1938C117.668 22.1466 117.7 22.106 117.741 22.0718C117.781 22.0376 117.83 22.0107 117.887 21.9912C117.946 21.9701 118.011 21.9595 118.083 21.9595C118.156 21.9595 118.221 21.9701 118.278 21.9912C118.336 22.0107 118.386 22.0376 118.427 22.0718C118.467 22.106 118.498 22.1466 118.52 22.1938C118.542 22.2394 118.554 22.2891 118.554 22.3428C118.554 22.3949 118.542 22.4445 118.52 22.4917C118.498 22.5373 118.467 22.578 118.427 22.6138C118.386 22.6479 118.336 22.6756 118.278 22.6968C118.221 22.7163 118.156 22.7261 118.083 22.7261ZM117.721 23.1191H118.444V26H117.721V23.1191Z" fill="white"/>
</g>
<defs>
<filter id="filter0_d_45_48" x="6.81836" y="4.93848" width="113.447" height="29.3281" filterUnits="userSpaceOnUse" color-interpolation-filters="sRGB">
<feFlood flood-opacity="0" result="BackgroundImageFix"/>
<feColorMatrix in="SourceAlpha" type="matrix" values="0 0 0 0 0 0 0 0 0 0 0 0 0 0 0 0 0 0 127 0" result="hardAlpha"/>
<feOffset dy="4"/>
<feGaussianBlur stdDeviation="2"/>
<feComposite in2="hardAlpha" operator="out"/>
<feColorMatrix type="matrix" values="0 0 0 0 0 0 0 0 0 0 0 0 0 0 0 0 0 0 0.25 0"/>
<feBlend mode="normal" in2="BackgroundImageFix" result="effect1_dropShadow_45_48"/>
<feBlend mode="normal" in="SourceGraphic" in2="effect1_dropShadow_45_48" result="shape"/>
</filter>
<filter id="filter1_d_45_48" x="0.420898" y="5.68945" width="12.5791" height="28.6602" filterUnits="userSpaceOnUse" color-interpolation-filters="sRGB">
<feFlood flood-opacity="0" result="BackgroundImageFix"/>
<feColorMatrix in="SourceAlpha" type="matrix" values="0 0 0 0 0 0 0 0 0 0 0 0 0 0 0 0 0 0 127 0" result="hardAlpha"/>
<feOffset dy="4"/>
<feGaussianBlur stdDeviation="2"/>
<feComposite in2="hardAlpha" operator="out"/>
<feColorMatrix type="matrix" values="0 0 0 0 0 0 0 0 0 0 0 0 0 0 0 0 0 0 0.25 0"/>
<feBlend mode="normal" in2="BackgroundImageFix" result="effect1_dropShadow_45_48"/>
<feBlend mode="normal" in="SourceGraphic" in2="effect1_dropShadow_45_48" result="shape"/>
</filter>
<filter id="filter2_d_45_48" x="107.466" y="21.9595" width="15.0874" height="12.0918" filterUnits="userSpaceOnUse" color-interpolation-filters="sRGB">
<feFlood flood-opacity="0" result="BackgroundImageFix"/>
<feColorMatrix in="SourceAlpha" type="matrix" values="0 0 0 0 0 0 0 0 0 0 0 0 0 0 0 0 0 0 127 0" result="hardAlpha"/>
<feOffset dy="4"/>
<feGaussianBlur stdDeviation="2"/>
<feComposite in2="hardAlpha" operator="out"/>
<feColorMatrix type="matrix" values="0 0 0 0 0 0 0 0 0 0 0 0 0 0 0 0 0 0 0.25 0"/>
<feBlend mode="normal" in2="BackgroundImageFix" result="effect1_dropShadow_45_48"/>
<feBlend mode="normal" in="SourceGraphic" in2="effect1_dropShadow_45_48" result="shape"/>
</filter>
</defs>
</svg>
