<svg width="144" height="39" viewBox="0 0 144 39" fill="none" xmlns="http://www.w3.org/2000/svg">
<g filter="url(#filter0_d_46_49)">
<path d="M13.252 7.10449H33.7305V11.1768H17.8955V17.168H31.3428V20.9912H17.8955V30H13.252V7.10449ZM39.9561 10.3564C39.5264 10.3564 39.1357 10.2979 38.7842 10.1807C38.4424 10.0537 38.1494 9.8877 37.9053 9.68262C37.6611 9.46777 37.4707 9.22363 37.334 8.9502C37.207 8.66699 37.1436 8.36914 37.1436 8.05664C37.1436 7.73438 37.207 7.43652 37.334 7.16309C37.4707 6.87988 37.6611 6.63574 37.9053 6.43066C38.1494 6.22559 38.4424 6.06445 38.7842 5.94727C39.1357 5.82031 39.5264 5.75684 39.9561 5.75684C40.3955 5.75684 40.7861 5.82031 41.1279 5.94727C41.4795 6.06445 41.7773 6.22559 42.0215 6.43066C42.2656 6.63574 42.4512 6.87988 42.5781 7.16309C42.7148 7.43652 42.7832 7.73438 42.7832 8.05664C42.7832 8.36914 42.7148 8.66699 42.5781 8.9502C42.4512 9.22363 42.2656 9.46777 42.0215 9.68262C41.7773 9.8877 41.4795 10.0537 41.1279 10.1807C40.7861 10.2979 40.3955 10.3564 39.9561 10.3564ZM37.7881 12.7148H42.124V30H37.7881V12.7148ZM47.6904 12.7148H52.0264V14.1797C53.1787 13.5254 54.2773 13.0664 55.3223 12.8027C56.377 12.5391 57.4072 12.4072 58.4131 12.4072C59.7314 12.4072 60.9521 12.6025 62.0752 12.9932C63.1982 13.374 64.1699 13.9453 64.9902 14.707C65.8105 15.4688 66.4502 16.4209 66.9092 17.5635C67.3779 18.6963 67.6123 20.0098 67.6123 21.5039V30H63.291V22.207C63.291 21.2598 63.1543 20.415 62.8809 19.6729C62.6172 18.9209 62.2314 18.291 61.7236 17.7832C61.2256 17.2656 60.6152 16.875 59.8926 16.6113C59.1797 16.3379 58.3789 16.2012 57.4902 16.2012C57.0215 16.2012 56.5381 16.25 56.04 16.3477C55.5518 16.4453 55.0684 16.5869 54.5898 16.7725C54.1211 16.9482 53.667 17.1729 53.2275 17.4463C52.7881 17.71 52.3877 18.0127 52.0264 18.3545V30H47.6904V12.7148ZM71.6113 21.4307C71.6113 20.0537 71.8701 18.8135 72.3877 17.71C72.9053 16.5967 73.6182 15.6494 74.5264 14.8682C75.4443 14.0771 76.5283 13.4717 77.7783 13.0518C79.0381 12.6221 80.4004 12.4072 81.8652 12.4072C82.4902 12.4072 83.1055 12.4463 83.7109 12.5244C84.3262 12.6025 84.9121 12.71 85.4688 12.8467C86.0352 12.9834 86.5625 13.1494 87.0508 13.3447C87.5488 13.5303 87.9883 13.7354 88.3691 13.96V5.69824H92.7051V30H88.3691V28.374C87.9883 28.6377 87.5391 28.8867 87.0215 29.1211C86.5039 29.3555 85.9473 29.5605 85.3516 29.7363C84.7559 29.9121 84.1357 30.0488 83.4912 30.1465C82.8564 30.2539 82.2266 30.3076 81.6016 30.3076C80.1367 30.3076 78.7891 30.0928 77.5586 29.6631C76.3379 29.2334 75.2881 28.6279 74.4092 27.8467C73.5303 27.0654 72.8418 26.1328 72.3438 25.0488C71.8555 23.9551 71.6113 22.749 71.6113 21.4307ZM76.167 21.4307C76.167 22.124 76.3037 22.7783 76.5771 23.3936C76.8604 24.0088 77.2607 24.5508 77.7783 25.0195C78.3057 25.4785 78.9355 25.8447 79.668 26.1182C80.4102 26.3818 81.2402 26.5137 82.1582 26.5137C82.7441 26.5137 83.3301 26.46 83.916 26.3525C84.502 26.2354 85.0635 26.0742 85.6006 25.8691C86.1475 25.6641 86.6553 25.415 87.124 25.1221C87.6025 24.8291 88.0176 24.502 88.3691 24.1406V18.1494C87.9297 17.7979 87.4658 17.5 86.9775 17.2559C86.4893 17.0117 85.9912 16.8115 85.4834 16.6553C84.9756 16.499 84.4629 16.3867 83.9453 16.3184C83.4277 16.2402 82.9248 16.2012 82.4365 16.2012C81.4404 16.2012 80.5518 16.3379 79.7705 16.6113C78.999 16.875 78.3447 17.2412 77.8076 17.71C77.2803 18.1787 76.875 18.7305 76.5918 19.3652C76.3086 20 76.167 20.6885 76.167 21.4307ZM97.2021 21.2988C97.2021 20.127 97.4414 19.0088 97.9199 17.9443C98.3984 16.8701 99.0869 15.9229 99.9854 15.1025C100.884 14.2822 101.982 13.6279 103.281 13.1396C104.59 12.6514 106.074 12.4072 107.734 12.4072C109.385 12.4072 110.869 12.6562 112.188 13.1543C113.516 13.6426 114.639 14.3164 115.557 15.1758C116.484 16.0352 117.192 17.0459 117.681 18.208C118.179 19.3701 118.428 20.6152 118.428 21.9434C118.428 22.1094 118.423 22.29 118.413 22.4854C118.413 22.6709 118.403 22.8418 118.384 22.998H102.036C102.222 23.5156 102.52 23.9893 102.93 24.4189C103.35 24.8486 103.872 25.2197 104.497 25.5322C105.122 25.8447 105.845 26.0889 106.665 26.2646C107.485 26.4307 108.394 26.5137 109.39 26.5137C110.386 26.5137 111.377 26.4111 112.363 26.2061C113.35 25.9912 114.292 25.7227 115.19 25.4004L116.655 28.7109C116.089 28.9746 115.513 29.209 114.927 29.4141C114.351 29.6094 113.745 29.7754 113.11 29.9121C112.485 30.0391 111.826 30.1367 111.133 30.2051C110.449 30.2734 109.727 30.3076 108.965 30.3076C107.021 30.3076 105.317 30.0732 103.853 29.6045C102.388 29.1357 101.162 28.4961 100.176 27.6855C99.1895 26.875 98.4473 25.9229 97.9492 24.8291C97.4512 23.7354 97.2021 22.5586 97.2021 21.2988ZM113.828 19.6143C113.672 19.1357 113.428 18.6914 113.096 18.2812C112.773 17.8613 112.368 17.5 111.88 17.1973C111.392 16.8848 110.825 16.6406 110.181 16.4648C109.536 16.2891 108.828 16.2012 108.057 16.2012C107.236 16.2012 106.489 16.2939 105.815 16.4795C105.142 16.665 104.551 16.9141 104.043 17.2266C103.535 17.5391 103.11 17.9004 102.769 18.3105C102.437 18.7207 102.192 19.1553 102.036 19.6143H113.828ZM123.101 12.7148H127.437V15.2051C128.394 14.4922 129.404 13.877 130.469 13.3594C131.533 12.8418 132.593 12.4463 133.647 12.1729L134.922 16.1426C133.252 16.3086 131.782 16.6846 130.513 17.2705C129.253 17.8467 128.228 18.6621 127.437 19.7168V30H123.101V12.7148Z" fill="white"/>
</g>
<g filter="url(#filter1_d_46_49)">
<path d="M4.65771 29.2412L4.65771 26.4248C4.65771 26.0146 4.70215 25.6592 4.79102 25.3584C4.87988 25.0576 5.00863 24.8081 5.17725 24.6099C5.34359 24.4116 5.54753 24.2646 5.78906 24.1689C6.0306 24.071 6.3029 24.022 6.60596 24.022C6.89079 24.022 7.15397 24.0698 7.39551 24.1655C7.63704 24.2612 7.84668 24.4082 8.02441 24.6064C8.19987 24.8024 8.33773 25.0508 8.43799 25.3516C8.53597 25.6523 8.58496 26.0078 8.58496 26.418L8.58154 28.1577H10V29.2412H4.65771ZM7.64502 26.3975C7.64502 26.1924 7.62109 26.0135 7.57324 25.8608C7.52311 25.7059 7.45361 25.5771 7.36475 25.4746C7.2736 25.3698 7.16423 25.2923 7.03662 25.2422C6.90674 25.1898 6.76318 25.1636 6.60596 25.1636C6.28923 25.1636 6.04313 25.2673 5.86768 25.4746C5.68994 25.6797 5.60107 25.9873 5.60107 26.3975L5.60107 28.1577H7.64502L7.64502 26.3975ZM4.65771 21.0142V19.8657L10 17.2817V18.4199L9.10107 18.8472L9.10107 21.9678L10 22.3813V23.5229L4.65771 21.0142ZM8.20898 19.2744L5.78223 20.4297L8.20898 21.5542L8.20898 19.2744ZM5.60791 14.8413L5.60791 16.8135H4.65771L4.65771 11.7856H5.60791V13.7578H10V14.8413L5.60791 14.8413ZM4.65771 10.6304V9.54688H6.05225L6.05225 6.22461H4.65771V5.1377H10V6.22461H6.97852L6.97852 9.54688H10V10.6304H4.65771Z" fill="white"/>
</g>
<g filter="url(#filter2_d_46_49)">
<path d="M130.56 29.4932C130.56 29.415 130.575 29.3418 130.606 29.2734C130.64 29.2031 130.687 29.1426 130.747 29.0918C130.808 29.0391 130.881 28.998 130.967 28.9688C131.053 28.9395 131.149 28.9248 131.257 28.9248C131.364 28.9248 131.461 28.9395 131.547 28.9688C131.633 28.998 131.705 29.0391 131.764 29.0918C131.824 29.1426 131.87 29.2031 131.901 29.2734C131.935 29.3418 131.951 29.415 131.951 29.4932C131.951 29.5713 131.935 29.6455 131.901 29.7158C131.87 29.7842 131.824 29.8438 131.764 29.8945C131.705 29.9453 131.633 29.9854 131.547 30.0146C131.461 30.0459 131.364 30.0615 131.257 30.0615C131.149 30.0615 131.053 30.0459 130.967 30.0146C130.881 29.9854 130.808 29.9453 130.747 29.8945C130.687 29.8438 130.64 29.7842 130.606 29.7158C130.575 29.6455 130.56 29.5713 130.56 29.4932ZM132.892 28.9102C132.892 28.7441 132.928 28.5928 133 28.4561C133.072 28.3193 133.181 28.2021 133.325 28.1045C133.47 28.0049 133.649 27.9287 133.864 27.876C134.081 27.8213 134.333 27.7939 134.62 27.7939C134.833 27.7939 135.057 27.8096 135.291 27.8408C135.527 27.8721 135.771 27.9199 136.021 27.9844C136.011 27.875 135.978 27.7744 135.921 27.6826C135.864 27.5889 135.785 27.5088 135.684 27.4424C135.584 27.374 135.463 27.3213 135.32 27.2842C135.18 27.2471 135.02 27.2285 134.84 27.2285C134.742 27.2285 134.635 27.2344 134.518 27.2461C134.4 27.2578 134.279 27.2754 134.154 27.2988C134.029 27.3223 133.905 27.3516 133.782 27.3867C133.661 27.4219 133.548 27.4639 133.442 27.5127L133.179 26.8008C133.31 26.7539 133.449 26.7109 133.598 26.6719C133.748 26.6328 133.901 26.5996 134.058 26.5723C134.214 26.543 134.37 26.5205 134.526 26.5049C134.683 26.4893 134.834 26.4814 134.98 26.4814C135.627 26.4814 136.107 26.6465 136.422 26.9766C136.736 27.3066 136.894 27.8125 136.894 28.4941V30H136.026V29.6748C135.937 29.7275 135.838 29.7773 135.73 29.8242C135.625 29.8711 135.51 29.9121 135.385 29.9473C135.26 29.9824 135.125 30.0098 134.98 30.0293C134.838 30.0508 134.687 30.0615 134.526 30.0615C134.257 30.0615 134.02 30.0322 133.814 29.9736C133.611 29.915 133.441 29.834 133.305 29.7305C133.168 29.627 133.064 29.5059 132.994 29.3672C132.926 29.2266 132.892 29.0742 132.892 28.9102ZM133.806 28.8809C133.806 28.9375 133.82 28.9922 133.85 29.0449C133.879 29.0957 133.926 29.1416 133.99 29.1826C134.055 29.2217 134.137 29.2539 134.236 29.2793C134.338 29.3027 134.46 29.3145 134.603 29.3145C134.755 29.3145 134.902 29.3008 135.045 29.2734C135.188 29.2461 135.32 29.21 135.443 29.165C135.566 29.1201 135.678 29.0684 135.777 29.0098C135.877 28.9512 135.96 28.8906 136.026 28.8281V28.6758C135.894 28.6387 135.762 28.6074 135.631 28.582C135.502 28.5566 135.378 28.5371 135.259 28.5234C135.142 28.5078 135.03 28.4971 134.925 28.4912C134.821 28.4854 134.73 28.4824 134.652 28.4824C134.49 28.4824 134.355 28.4932 134.248 28.5146C134.141 28.5361 134.054 28.5654 133.987 28.6025C133.921 28.6377 133.874 28.6797 133.847 28.7285C133.819 28.7773 133.806 28.8281 133.806 28.8809ZM138.499 26.0713C138.413 26.0713 138.335 26.0596 138.265 26.0361C138.196 26.0107 138.138 25.9775 138.089 25.9365C138.04 25.8936 138.002 25.8447 137.975 25.79C137.949 25.7334 137.937 25.6738 137.937 25.6113C137.937 25.5469 137.949 25.4873 137.975 25.4326C138.002 25.376 138.04 25.3271 138.089 25.2861C138.138 25.2451 138.196 25.2129 138.265 25.1895C138.335 25.1641 138.413 25.1514 138.499 25.1514C138.587 25.1514 138.665 25.1641 138.733 25.1895C138.804 25.2129 138.863 25.2451 138.912 25.2861C138.961 25.3271 138.998 25.376 139.023 25.4326C139.051 25.4873 139.064 25.5469 139.064 25.6113C139.064 25.6738 139.051 25.7334 139.023 25.79C138.998 25.8447 138.961 25.8936 138.912 25.9365C138.863 25.9775 138.804 26.0107 138.733 26.0361C138.665 26.0596 138.587 26.0713 138.499 26.0713ZM138.065 26.543H138.933V30H138.065V26.543Z" fill="white"/>
</g>
<defs>
<filter id="filter0_d_46_49" x="9.25195" y="5.69824" width="129.67" height="32.6094" filterUnits="userSpaceOnUse" color-interpolation-filters="sRGB">
<feFlood flood-opacity="0" result="BackgroundImageFix"/>
<feColorMatrix in="SourceAlpha" type="matrix" values="0 0 0 0 0 0 0 0 0 0 0 0 0 0 0 0 0 0 127 0" result="hardAlpha"/>
<feOffset dy="4"/>
<feGaussianBlur stdDeviation="2"/>
<feComposite in2="hardAlpha" operator="out"/>
<feColorMatrix type="matrix" values="0 0 0 0 0 0 0 0 0 0 0 0 0 0 0 0 0 0 0.25 0"/>
<feBlend mode="normal" in2="BackgroundImageFix" result="effect1_dropShadow_46_49"/>
<feBlend mode="normal" in="SourceGraphic" in2="effect1_dropShadow_46_49" result="shape"/>
</filter>
<filter id="filter1_d_46_49" x="0.657715" y="5.1377" width="13.3423" height="32.1035" filterUnits="userSpaceOnUse" color-interpolation-filters="sRGB">
<feFlood flood-opacity="0" result="BackgroundImageFix"/>
<feColorMatrix in="SourceAlpha" type="matrix" values="0 0 0 0 0 0 0 0 0 0 0 0 0 0 0 0 0 0 127 0" result="hardAlpha"/>
<feOffset dy="4"/>
<feGaussianBlur stdDeviation="2"/>
<feComposite in2="hardAlpha" operator="out"/>
<feColorMatrix type="matrix" values="0 0 0 0 0 0 0 0 0 0 0 0 0 0 0 0 0 0 0.25 0"/>
<feBlend mode="normal" in2="BackgroundImageFix" result="effect1_dropShadow_46_49"/>
<feBlend mode="normal" in="SourceGraphic" in2="effect1_dropShadow_46_49" result="shape"/>
</filter>
<filter id="filter2_d_46_49" x="126.56" y="25.1514" width="16.5049" height="12.9102" filterUnits="userSpaceOnUse" color-interpolation-filters="sRGB">
<feFlood flood-opacity="0" result="BackgroundImageFix"/>
<feColorMatrix in="SourceAlpha" type="matrix" values="0 0 0 0 0 0 0 0 0 0 0 0 0 0 0 0 0 0 127 0" result="hardAlpha"/>
<feOffset dy="4"/>
<feGaussianBlur stdDeviation="2"/>
<feComposite in2="hardAlpha" operator="out"/>
<feColorMatrix type="matrix" values="0 0 0 0 0 0 0 0 0 0 0 0 0 0 0 0 0 0 0.25 0"/>
<feBlend mode="normal" in2="BackgroundImageFix" result="effect1_dropShadow_46_49"/>
<feBlend mode="normal" in="SourceGraphic" in2="effect1_dropShadow_46_49" result="shape"/>
</filter>
</defs>
</svg>
